<svg width="64" height="64" viewBox="0 0 64 64" fill="none" xmlns="http://www.w3.org/2000/svg">
  <rect width="64" height="64" rx="18" fill="url(#paint0_linear_127_5)"/>
  <rect x="2" y="2" width="60" height="60" rx="16" stroke="rgba(15,23,42,0.08)"/>
  <path d="M18 15.5L35.207 32L18 48.5C17.534 48.189 17.25 47.666 17.25 47.099V16.901C17.25 16.334 17.534 15.811 18 15.5Z" fill="#0F172A" fill-opacity="0.16"/>
  <path d="M40.3 37.276L21.71 47.48L33.98 35.716L40.3 37.276Z" fill="#EA4335"/>
  <path d="M40.3 26.724L33.98 28.284L21.71 16.52L40.3 26.724Z" fill="#FBBC04"/>
  <path d="M47 32L40.3 37.276L33.98 35.716L33.98 28.284L40.3 26.724L47 32Z" fill="#34A853"/>
  <path d="M21.71 16.52L33.98 28.284V35.716L21.71 47.48L18 43.932V20.068L21.71 16.52Z" fill="#4285F4"/>
  <defs>
    <linearGradient id="paint0_linear_127_5" x1="8.5" y1="8" x2="55.5" y2="56.5" gradientUnits="userSpaceOnUse">
      <stop stop-color="#FFFFFF"/>
      <stop offset="1" stop-color="#E5EEF9"/>
    </linearGradient>
  </defs>
</svg>
